# xmcd
#
# Track frame offsets: 
#        150
#        22318
#        43121
#        59383
#        69214
#        90712
#        117566
#        151794
#        174971
#        195932
#
# Disc length: 2827 seconds
#
# Revision: 3
# Processed by: cddbd v1.5.1PL0 Copyright (c) Steve Scherf et al.
# Submitted via: ExactAudioCopy v0.95a5
#
DISCID=7d0b090a
DTITLE=Various Artist - Metro Life: Late Night London
DYEAR=2003
DGENRE=Jazz
TTITLE0=The Buddy Rich Big Band - The Beat Goes On
TTITLE1=US3 feat. Rahsaan and Gerard Presencer - Cantaloupe
TTITLE2=Quincy Jones - Take Five
TTITLE3=Dinah Washington - September in the Rain
TTITLE4=Shakatak - Silver Falls
TTITLE5=Metro - Yikes!
TTITLE6=Bah Samba - So Tired of Waiting
TTITLE7=Dave McMurray feat. Bonnie Peele - Killing Me Softly
TTITLE8=Jonathan Butler - High Tide
TTITLE9=Nina Simone - My Baby Just Cares for Me
EXTD=YEAR: 2003
EXTT0=
EXTT1=
EXTT2=
EXTT3=
EXTT4=
EXTT5=
EXTT6=
EXTT7=
EXTT8=
EXTT9=
PLAYORDER=
